<mxfile host="Electron" agent="Mozilla/5.0 (Windows NT 10.0; Win64; x64) AppleWebKit/537.36 (KHTML, like Gecko) draw.io/24.7.17 Chrome/128.0.6613.36 Electron/32.0.1 Safari/537.36" version="24.7.17">
  <diagram name="Pagina-1" id="xYcANwJYEzpBgxGqlxi0">
    <mxGraphModel dx="473" dy="274" grid="1" gridSize="10" guides="1" tooltips="1" connect="1" arrows="1" fold="1" page="1" pageScale="1" pageWidth="827" pageHeight="1169" math="1" shadow="0">
      <root>
        <mxCell id="0" />
        <mxCell id="1" parent="0" />
        <mxCell id="9i6FkmJzO-so8N3dWPEm-2" value="" style="ellipse;whiteSpace=wrap;html=1;aspect=fixed;fillColor=none;" vertex="1" parent="1">
          <mxGeometry x="260" y="300" width="40" height="40" as="geometry" />
        </mxCell>
        <mxCell id="9i6FkmJzO-so8N3dWPEm-16" style="edgeStyle=orthogonalEdgeStyle;rounded=0;orthogonalLoop=1;jettySize=auto;html=1;entryX=0.5;entryY=0;entryDx=0;entryDy=0;" edge="1" parent="1" source="9i6FkmJzO-so8N3dWPEm-3" target="9i6FkmJzO-so8N3dWPEm-10">
          <mxGeometry relative="1" as="geometry" />
        </mxCell>
        <mxCell id="9i6FkmJzO-so8N3dWPEm-3" value="" style="rounded=0;whiteSpace=wrap;html=1;fillColor=#000000;rotation=0;" vertex="1" parent="1">
          <mxGeometry x="230" y="370" width="30" height="10" as="geometry" />
        </mxCell>
        <mxCell id="9i6FkmJzO-so8N3dWPEm-4" value="" style="shape=waypoint;sketch=0;fillStyle=solid;size=6;pointerEvents=1;points=[];fillColor=none;resizable=0;rotatable=0;perimeter=centerPerimeter;snapToPoint=1;" vertex="1" parent="1">
          <mxGeometry x="270" y="310" width="20" height="20" as="geometry" />
        </mxCell>
        <mxCell id="9i6FkmJzO-so8N3dWPEm-5" value="\(t_3\)" style="text;html=1;align=center;verticalAlign=middle;whiteSpace=wrap;rounded=0;" vertex="1" parent="1">
          <mxGeometry x="335" y="365" width="30" height="20" as="geometry" />
        </mxCell>
        <mxCell id="9i6FkmJzO-so8N3dWPEm-6" value="\(p_1\)" style="text;html=1;align=center;verticalAlign=middle;whiteSpace=wrap;rounded=0;" vertex="1" parent="1">
          <mxGeometry x="265" y="280" width="30" height="20" as="geometry" />
        </mxCell>
        <mxCell id="9i6FkmJzO-so8N3dWPEm-15" style="edgeStyle=orthogonalEdgeStyle;rounded=0;orthogonalLoop=1;jettySize=auto;html=1;entryX=0.5;entryY=0;entryDx=0;entryDy=0;" edge="1" parent="1" source="9i6FkmJzO-so8N3dWPEm-7" target="9i6FkmJzO-so8N3dWPEm-11">
          <mxGeometry relative="1" as="geometry" />
        </mxCell>
        <mxCell id="9i6FkmJzO-so8N3dWPEm-7" value="" style="rounded=0;whiteSpace=wrap;html=1;fillColor=#000000;rotation=0;" vertex="1" parent="1">
          <mxGeometry x="300" y="370" width="30" height="10" as="geometry" />
        </mxCell>
        <mxCell id="9i6FkmJzO-so8N3dWPEm-23" style="edgeStyle=orthogonalEdgeStyle;rounded=0;orthogonalLoop=1;jettySize=auto;html=1;entryX=0.25;entryY=1;entryDx=0;entryDy=0;curved=1;" edge="1" parent="1" source="9i6FkmJzO-so8N3dWPEm-10" target="9i6FkmJzO-so8N3dWPEm-19">
          <mxGeometry relative="1" as="geometry" />
        </mxCell>
        <mxCell id="9i6FkmJzO-so8N3dWPEm-10" value="" style="ellipse;whiteSpace=wrap;html=1;aspect=fixed;fillColor=none;" vertex="1" parent="1">
          <mxGeometry x="225" y="410" width="40" height="40" as="geometry" />
        </mxCell>
        <mxCell id="9i6FkmJzO-so8N3dWPEm-22" style="edgeStyle=orthogonalEdgeStyle;rounded=0;orthogonalLoop=1;jettySize=auto;html=1;entryX=0.75;entryY=1;entryDx=0;entryDy=0;curved=1;" edge="1" parent="1" source="9i6FkmJzO-so8N3dWPEm-11" target="9i6FkmJzO-so8N3dWPEm-19">
          <mxGeometry relative="1" as="geometry" />
        </mxCell>
        <mxCell id="9i6FkmJzO-so8N3dWPEm-11" value="" style="ellipse;whiteSpace=wrap;html=1;aspect=fixed;fillColor=none;" vertex="1" parent="1">
          <mxGeometry x="295" y="410" width="40" height="40" as="geometry" />
        </mxCell>
        <mxCell id="9i6FkmJzO-so8N3dWPEm-12" value="\(p_2\)" style="text;html=1;align=center;verticalAlign=middle;whiteSpace=wrap;rounded=0;" vertex="1" parent="1">
          <mxGeometry x="200" y="420" width="30" height="20" as="geometry" />
        </mxCell>
        <mxCell id="9i6FkmJzO-so8N3dWPEm-13" value="\(p_3\)" style="text;html=1;align=center;verticalAlign=middle;whiteSpace=wrap;rounded=0;" vertex="1" parent="1">
          <mxGeometry x="335" y="420" width="30" height="20" as="geometry" />
        </mxCell>
        <mxCell id="9i6FkmJzO-so8N3dWPEm-14" value="\(t_2\)" style="text;html=1;align=center;verticalAlign=middle;whiteSpace=wrap;rounded=0;" vertex="1" parent="1">
          <mxGeometry x="200" y="365" width="30" height="20" as="geometry" />
        </mxCell>
        <mxCell id="9i6FkmJzO-so8N3dWPEm-17" value="" style="endArrow=classic;html=1;rounded=0;exitX=0;exitY=1;exitDx=0;exitDy=0;entryX=0.5;entryY=0;entryDx=0;entryDy=0;" edge="1" parent="1" source="9i6FkmJzO-so8N3dWPEm-2" target="9i6FkmJzO-so8N3dWPEm-3">
          <mxGeometry width="50" height="50" relative="1" as="geometry">
            <mxPoint x="280" y="410" as="sourcePoint" />
            <mxPoint x="330" y="360" as="targetPoint" />
          </mxGeometry>
        </mxCell>
        <mxCell id="9i6FkmJzO-so8N3dWPEm-18" value="" style="endArrow=classic;html=1;rounded=0;exitX=1;exitY=1;exitDx=0;exitDy=0;entryX=0.5;entryY=0;entryDx=0;entryDy=0;" edge="1" parent="1" source="9i6FkmJzO-so8N3dWPEm-2" target="9i6FkmJzO-so8N3dWPEm-7">
          <mxGeometry width="50" height="50" relative="1" as="geometry">
            <mxPoint x="280" y="410" as="sourcePoint" />
            <mxPoint x="330" y="360" as="targetPoint" />
          </mxGeometry>
        </mxCell>
        <mxCell id="9i6FkmJzO-so8N3dWPEm-20" style="edgeStyle=orthogonalEdgeStyle;rounded=0;orthogonalLoop=1;jettySize=auto;html=1;entryX=0.5;entryY=1;entryDx=0;entryDy=0;" edge="1" parent="1" source="9i6FkmJzO-so8N3dWPEm-19" target="9i6FkmJzO-so8N3dWPEm-2">
          <mxGeometry relative="1" as="geometry" />
        </mxCell>
        <mxCell id="9i6FkmJzO-so8N3dWPEm-19" value="" style="rounded=0;whiteSpace=wrap;html=1;fillColor=#000000;rotation=0;" vertex="1" parent="1">
          <mxGeometry x="265" y="460" width="30" height="10" as="geometry" />
        </mxCell>
        <mxCell id="9i6FkmJzO-so8N3dWPEm-21" value="\(t_1\)" style="text;html=1;align=center;verticalAlign=middle;whiteSpace=wrap;rounded=0;" vertex="1" parent="1">
          <mxGeometry x="280" y="440" width="20" height="20" as="geometry" />
        </mxCell>
        <mxCell id="9i6FkmJzO-so8N3dWPEm-30" style="edgeStyle=orthogonalEdgeStyle;rounded=0;orthogonalLoop=1;jettySize=auto;html=1;entryX=0;entryY=0.5;entryDx=0;entryDy=0;curved=1;" edge="1" parent="1" source="9i6FkmJzO-so8N3dWPEm-24" target="9i6FkmJzO-so8N3dWPEm-2">
          <mxGeometry relative="1" as="geometry">
            <Array as="points">
              <mxPoint x="215" y="510" />
              <mxPoint x="180" y="510" />
              <mxPoint x="180" y="320" />
            </Array>
          </mxGeometry>
        </mxCell>
        <mxCell id="9i6FkmJzO-so8N3dWPEm-24" value="" style="rounded=0;whiteSpace=wrap;html=1;fillColor=#000000;rotation=0;" vertex="1" parent="1">
          <mxGeometry x="200" y="480" width="30" height="10" as="geometry" />
        </mxCell>
        <mxCell id="9i6FkmJzO-so8N3dWPEm-31" style="edgeStyle=orthogonalEdgeStyle;rounded=0;orthogonalLoop=1;jettySize=auto;html=1;entryX=1;entryY=0.5;entryDx=0;entryDy=0;curved=1;" edge="1" parent="1" source="9i6FkmJzO-so8N3dWPEm-25" target="9i6FkmJzO-so8N3dWPEm-2">
          <mxGeometry relative="1" as="geometry">
            <Array as="points">
              <mxPoint x="345" y="510" />
              <mxPoint x="380" y="510" />
              <mxPoint x="380" y="320" />
            </Array>
          </mxGeometry>
        </mxCell>
        <mxCell id="9i6FkmJzO-so8N3dWPEm-25" value="" style="rounded=0;whiteSpace=wrap;html=1;fillColor=#000000;rotation=0;" vertex="1" parent="1">
          <mxGeometry x="330" y="480" width="30" height="10" as="geometry" />
        </mxCell>
        <mxCell id="9i6FkmJzO-so8N3dWPEm-26" value="\(t_4\)" style="text;html=1;align=center;verticalAlign=middle;whiteSpace=wrap;rounded=0;" vertex="1" parent="1">
          <mxGeometry x="225" y="490" width="20" height="20" as="geometry" />
        </mxCell>
        <mxCell id="9i6FkmJzO-so8N3dWPEm-27" value="\(t_5\)" style="text;html=1;align=center;verticalAlign=middle;whiteSpace=wrap;rounded=0;" vertex="1" parent="1">
          <mxGeometry x="315" y="490" width="20" height="20" as="geometry" />
        </mxCell>
        <mxCell id="9i6FkmJzO-so8N3dWPEm-28" value="" style="endArrow=classic;html=1;rounded=0;exitX=0;exitY=1;exitDx=0;exitDy=0;entryX=0.5;entryY=0;entryDx=0;entryDy=0;" edge="1" parent="1" source="9i6FkmJzO-so8N3dWPEm-10" target="9i6FkmJzO-so8N3dWPEm-24">
          <mxGeometry width="50" height="50" relative="1" as="geometry">
            <mxPoint x="221" y="440" as="sourcePoint" />
            <mxPoint x="200" y="476" as="targetPoint" />
          </mxGeometry>
        </mxCell>
        <mxCell id="9i6FkmJzO-so8N3dWPEm-29" value="" style="endArrow=classic;html=1;rounded=0;exitX=1;exitY=1;exitDx=0;exitDy=0;entryX=0.5;entryY=0;entryDx=0;entryDy=0;" edge="1" parent="1" source="9i6FkmJzO-so8N3dWPEm-11" target="9i6FkmJzO-so8N3dWPEm-25">
          <mxGeometry width="50" height="50" relative="1" as="geometry">
            <mxPoint x="242" y="456" as="sourcePoint" />
            <mxPoint x="225" y="490" as="targetPoint" />
          </mxGeometry>
        </mxCell>
      </root>
    </mxGraphModel>
  </diagram>
</mxfile>
